<svg fill="#818181" xmlns="http://www.w3.org/2000/svg" width="471.8" height="369.5"><path d="M328.4 262.9c2.7 2.7 6.2 4.1 9.9 4.1 3.8 0 7.3-1.5 9.9-4.1l119.5-119.5c5.5-5.5 5.5-14.4 0-19.9L348.3 4.1c-2.7-2.7-6.2-4.1-9.9-4.1-3.8 0-7.3 1.5-9.9 4.1-2.7 2.7-4.1 6.2-4.1 9.9v54.2H201.8c-7.8 0-14.1 6.3-14.1 14.1s6.3 14.1 14.1 14.1h136.5c7.8 0 14.1-6.3 14.1-14.1V48l85.5 85.5-85.5 85.5v-34.3c0-7.8-6.3-14.1-14.1-14.1H147.6v-54.2c0-7.8-6.3-14.1-14.1-14.1-3.8 0-7.3 1.5-9.9 4.1L4.1 226c-5.5 5.5-5.5 14.4 0 19.9l119.5 119.5c2.7 2.7 6.2 4.1 9.9 4.1 1.8 0 3.6-.4 5.3-1.1 5.3-2.2 8.7-7.3 8.7-13v-54.2H270c7.8 0 14.1-6.3 14.1-14.1S277.8 273 270 273H133.5c-7.8 0-14.1 6.3-14.1 14.1v34.3l-85.5-85.5 85.5-85.5v34.3c0 7.8 6.3 14.1 14.1 14.1h190.7V253c.1 3.8 1.5 7.3 4.2 9.9z"/></svg>