<!-- Generator: Adobe Illustrator 22.0.0, SVG Export Plug-In  -->
<svg version="1.1" fill="#818181"
	 xmlns="http://www.w3.org/2000/svg" xmlns:xlink="http://www.w3.org/1999/xlink" xmlns:a="http://ns.adobe.com/AdobeSVGViewerExtensions/3.0/"
	 x="0px" y="0px" width="391px" height="519px" viewBox="0 0 391 519" style="enable-background:new 0 0 391 519;"
	 xml:space="preserve">
<defs>
</defs>
<g>
	<path d="M116.5,290h162.7c7.8,0,14.2-6.4,14.2-14.2s-6.4-14.2-14.2-14.2H116.5c-7.8,0-14.2,6.4-14.2,14.2S108.7,290,116.5,290z"/>
	<path d="M116.5,222h162.7c7.8,0,14.2-6.4,14.2-14.2s-6.4-14.2-14.2-14.2H116.5c-7.8,0-14.2,6.4-14.2,14.2S108.7,222,116.5,222z"/>
	<path d="M116.5,358h162.7c7.8,0,14.2-6.4,14.2-14.2s-6.4-14.2-14.2-14.2H116.5c-7.8,0-14.2,6.4-14.2,14.2S108.7,358,116.5,358z"/>
	<path d="M116.5,426h162.7c7.8,0,14.2-6.4,14.2-14.2s-6.4-14.2-14.2-14.2H116.5c-7.8,0-14.2,6.4-14.2,14.2S108.7,426,116.5,426z"/>
	<path d="M334.2,64h-28.5v-7.2c0-7.8-6.4-14.2-14.2-14.2h-40.9C244.2,17.8,221.4,0,195.5,0c-25.9,0-48.7,17.8-55.1,42.7H99.5
		c-7.8,0-14.2,6.4-14.2,14.2V64H56.8C25.5,64,0,89.5,0,120.8v341.3C0,493.5,25.5,519,56.8,519h277.3c31.3,0,56.8-25.5,56.8-56.8
		V120.8C391,89.5,365.5,64,334.2,64z M195.5,28.3c15.7,0,28.5,12.8,28.5,28.5c0,7.8,6.4,14.2,14.2,14.2h39.2v28.5
		c0,4-3.2,7.2-7.2,7.2H120.8c-4,0-7.2-3.2-7.2-7.2V71h39.2c7.8,0,14.2-6.4,14.2-14.2C167,41.1,179.8,28.3,195.5,28.3z M120.8,135
		h149.3c19.6,0,35.5-15.9,35.5-35.5v-7.2h28.5c15.7,0,28.5,12.8,28.5,28.5v341.3c0,15.7-12.8,28.5-28.5,28.5H56.8
		c-15.7,0-28.5-12.8-28.5-28.5V120.8c0-15.7,12.8-28.5,28.5-28.5h28.5v7.2C85.3,119.1,101.3,135,120.8,135z"/>
</g>
</svg>

