<!-- Generator: Adobe Illustrator 22.0.0, SVG Export Plug-In  -->
<svg version="1.1" fill="#818181"
	 xmlns="http://www.w3.org/2000/svg" xmlns:xlink="http://www.w3.org/1999/xlink" xmlns:a="http://ns.adobe.com/AdobeSVGViewerExtensions/3.0/"
	 x="0px" y="0px" width="471.8px" height="369.5px" viewBox="0 0 471.8 369.5" style="enable-background:new 0 0 471.8 369.5;"
	 xml:space="preserve">
<defs>
</defs>
<path d="M328.4,262.9c2.7,2.7,6.2,4.1,9.9,4.1c0,0,0,0,0,0c3.8,0,7.3-1.5,9.9-4.1l119.5-119.5c5.5-5.5,5.5-14.4,0-19.9L348.3,4.1
	c-2.7-2.7-6.2-4.1-9.9-4.1c0,0,0,0,0,0c-3.8,0-7.3,1.5-9.9,4.1c-2.7,2.7-4.1,6.2-4.1,9.9v54.2H201.8c-7.8,0-14.1,6.3-14.1,14.1
	c0,7.8,6.3,14.1,14.1,14.1h136.5c7.8,0,14.1-6.3,14.1-14.1V48l85.5,85.5L352.4,219v-34.3c0-7.8-6.3-14.1-14.1-14.1H147.6v-54.2
	c0-7.8-6.3-14.1-14.1-14.1c0,0,0,0,0,0c-3.8,0-7.3,1.5-9.9,4.1L4.1,226c-5.5,5.5-5.5,14.4,0,19.9l119.5,119.5
	c2.7,2.7,6.2,4.1,9.9,4.1c0,0,0,0,0,0c1.8,0,3.6-0.4,5.3-1.1c5.3-2.2,8.7-7.3,8.7-13v-54.2h122.5c7.8,0,14.1-6.3,14.1-14.1
	c0-7.8-6.3-14.1-14.1-14.1H133.5c-7.8,0-14.1,6.3-14.1,14.1v34.3l-85.5-85.5l85.5-85.5v34.3c0,7.8,6.3,14.1,14.1,14.1h190.7V253
	C324.3,256.8,325.7,260.3,328.4,262.9z"/>
</svg>

